<?xml version="1.0" standalone="no"?><!DOCTYPE svg PUBLIC "-//W3C//DTD SVG 1.1//EN" "http://www.w3.org/Graphics/SVG/1.1/DTD/svg11.dtd">
<svg t="1554047128143" class="icon" style="" viewBox="0 0 1024 1024" version="1.1" 
    xmlns="http://www.w3.org/2000/svg" p-id="563" 
    xmlns:xlink="http://www.w3.org/1999/xlink" width="50" height="50">
    <defs>
        <style type="text/css"></style>
    </defs>
    <path d="M814.933333 994.133333l110.933334-42.666666c8.533333-4.266667 12.8-12.8 8.533333-21.333334L678.4 256c-4.266667-8.533333-12.8-12.8-21.333333-8.533333l-166.4 64v-21.333334c0-8.533333-8.533333-17.066667-17.066667-17.066666H290.133333v-256c0-8.533333-4.266667-17.066667-12.8-17.066667H76.8c-8.533333 0-12.8 8.533333-12.8 17.066667v981.333333H0v25.6h1024v-29.866667h-209.066667zM652.8 285.866667L896 930.133333l-157.866667 59.733334-243.2-644.266667 157.866667-59.733333z m55.466667 708.266666h-217.6V418.133333l217.6 576zM93.866667 29.866667h170.666666v964.266666h-170.666666V29.866667z m196.266666 964.266666V302.933333h170.666667v691.2h-170.666667z" fill="#6cc3a2" p-id="564"></path>
    <path d="M145.066667 89.6h64v29.866667H145.066667zM145.066667 145.066667h64v29.866666H145.066667zM145.066667 234.666667h64v29.866666H145.066667zM145.066667 294.4h64v29.866667H145.066667zM145.066667 358.4h64v29.866667H145.066667zM345.6 396.8h64v29.866667H345.6zM345.6 456.533333h64v29.866667H345.6zM345.6 520.533333h64v29.866667H345.6zM585.472 412.885333l59.776-22.826666 10.666667 27.904-59.776 22.826666zM606.592 468.394667l59.776-22.784 10.666667 27.904-59.818667 22.784zM628.224 528.554667l59.818667-22.826667 10.666666 27.861333-59.818666 22.869334zM696.234667 703.146667l59.733333-22.869334 10.709333 27.861334-59.776 22.869333zM717.354667 758.656l59.776-22.869333 10.666666 27.904-59.733333 22.869333zM738.986667 818.773333l59.776-22.869333 10.666666 27.904-59.776 22.826667zM145.066667 712.533333h64v29.866667H145.066667zM145.066667 797.866667h64v29.866666H145.066667zM145.066667 883.2h64v29.866667H145.066667z" fill="#6cc3a2" p-id="565"></path>
    </svg>